# AST/ASF file generated using VICON BodyLanguage
# -----------------------------------------------
:version 1.10
:name VICON
:units
  mass 1.0
  length 0.45
  angle deg
:documentation
   .ast/.asf automatically generated from VICON data using
   VICON BodyBuilder and BodyLanguage model FoxedUp or BRILLIANT.MOD
:root
   order TX TY TZ RX RY RZ
   axis XYZ
   position 0 0 0  
   orientation 0 0 0 
:bonedata
  begin
     id 1 
     name lhipjoint
     direction 0.578396 -0.714046 0.394458 
     length 2.21935 
     axis 0 0 0  XYZ
  end
  begin
     id 2 
     name lfemur
     direction 0.34202 -0.939693 0  
     length 6.39105  
     axis 0 0 20  XYZ
    dof rx ry rz
    limits (-160.0 20.0)
           (-70.0 70.0)
           (-60.0 70.0)
  end
  begin
     id 3 
     name ltibia
     direction 0.34202 -0.939693 0   
     length 6.99037   
     axis 0 0 20   XYZ
    dof rx
    limits (-10.0 170.0)
  end
  begin
     id 4 
     name lfoot
     direction 0.0582372 -0.160005 0.985397   
     length 2.06111   
     axis -90 7.62852e-016 20   XYZ
    dof rx rz
    limits (-45.0 90.0)
           (-70.0 20.0)
  end
  begin
     id 5 
     name ltoes
     direction 1.53556e-011 -4.21875e-011 1   
     length 1.04074   
     axis -90 7.62852e-016 20   XYZ
    dof rx
    limits (-90.0 20.0)
  end
  begin
     id 6 
     name rhipjoint
     direction -0.558179 -0.726269 0.40121   
     length 2.182  
     axis 0 0 0  XYZ 
  end
  begin
     id 7 
     name rfemur
     direction -0.34202 -0.939693 0   
     length 6.51172   
     axis 0 0 -20   XYZ
    dof rx ry rz
    limits (-160.0 20.0)
           (-70.0 70.0)
           (-70.0 60.0)
  end
  begin
     id 8 
     name rtibia
     direction -0.34202 -0.939693 0   
     length 7.02607   
     axis 0 0 -20   XYZ
    dof rx
    limits (-10.0 170.0)
 end
 begin
     id 9 
     name rfoot
     direction -0.0788856 -0.216737 0.973038   
     length 1.96734  
     axis -90 -7.62852e-016 -20   XYZ
    dof rx rz
    limits (-45.0 90.0)
           (-20.0 70.0)
  end
  begin
     id 10 
     name rtoes
     direction -1.53567e-011 -4.21783e-011 1   
     length 0.990825   
     axis -90 -7.62852e-016 -20   XYZ
    dof rx
    limits (-90.0 20.0)
  end
  begin
     id 11 
     name lowerback
     direction 0.00668177 0.999323 -0.0361741   
     length 1.7655   
     axis 0 0 0   XYZ
    dof rx ry rz
    limits (-20.0 45.0)
           (-30.0 30.0)
           (-30.0 30.0)
  end
  begin
     id 12 
     name upperback
     direction -0.00222086 0.99851 0.0545167   
     length 1.74912   
     axis 0 0 0   XYZ
    dof rx ry rz
    limits (-20.0 45.0)
           (-30.0 30.0)
           (-30.0 30.0)
  end
  begin
     id 13 
     name thorax
     direction -0.00733971 0.997496 0.0703443   
     length 1.75715   
     axis 0 0 0   XYZ
    dof rx ry rz
    limits (-20.0 45.0)
           (-30.0 30.0)
           (-30.0 30.0)
  end
  begin
     id 14 
     name lowerneck
     direction 0.0279797 0.994795 0.0979765   
     length 1.46939   
     axis 0 0 0   XYZ
    dof rx ry rz
    limits (-20.0 45.0)
           (-30.0 30.0)
           (-30.0 30.0)
  end
  begin
     id 15 
     name upperneck
     direction 0.00339187 0.976776 -0.214238   
     length 1.48018   
     axis 0 0 0   XYZ
    dof rx ry rz
    limits (-20.0 45.0)
           (-30.0 30.0)
           (-30.0 30.0)
  end
  begin
     id 16
     name head
     direction -0.00263506 0.996603 -0.0823096  
     length 1.4976  
     axis 0 0 0   XYZ
    dof rx ry rz
    limits (-20.0 45.0)
           (-30.0 30.0)
           (-30.0 30.0)
  end
  begin
     id 17 
     name lclavicle
     direction 0.894044 0.44508 -0.0508781  
     length 3.03024  
     axis 0 0 0   XYZ
    dof ry rz
    limits (-20.0 10.0)
           (0.0 20.0)
  end
  begin
     id 18 
     name lhumerus
     direction 1 -4.48961e-011 -2.39475e-018   
     length 4.4661   
     axis 180 -30 -90   XYZ
    dof rx ry rz
    limits (-60.0 90.0)
           (-90.0 90.0)
           (-90.0 90.0)
  end
  begin
     id 19
     name lradius
     direction 1 -4.48961e-011 9.29328e-028   
     length 3.41414   
     axis 180 -30 -90   XYZ
    dof rx
    limits (-10.0 170.0)
  end
  begin
     id 20
     name lwrist
     direction 1 -4.48985e-011 1.53461e-026   
     length 1.70707   
     axis -1.09697e-014 90 90   XYZ
    dof ry
    limits (-180.0 0.0)
 end
  begin
     id 21 
     name lhand
     direction 1 -4.48966e-011 3.06923e-026   
     length 0.328298   
     axis -1.95843e-014 90 90   XYZ
    dof rx rz
    limits (-90.0 90.0)
           (-45.0 45.0)
  end
  begin
     id 22 
     name lfingers
     direction 1 -4.48893e-011 6.13845e-026   
     length 0.264682   
     axis -3.91686e-014 90 90   XYZ
    dof rx
    limits (0.0 90.0)
  end
  begin
     id 23
     name lthumb
     direction 0.707107 -6.34876e-011 0.707107   
     length 0.380032   
     axis -90 45 2.85299e-015   XYZ
    dof rx rz
    limits (-45.0 45.0)
           (-45.0 45.0)
  end
  begin
     id 24 
     name rclavicle
     direction -0.936955 0.347862 -0.0332887   
     length 3.26927  
     axis 0 0 0   XYZ 
    dof ry rz
    limits (-10.0 20.0)
           (-20.0 0.0)
  end
  begin
     id 25 
     name rhumerus
     direction -1 -4.4896e-011 1.78637e-018  
     length 4.40431   
     axis 180 30 90   XYZ
    dof rx ry rz
    limits (-90.0 60.0)
           (-90.0 90.0)
           (-90.0 90.0)
  end
  begin
     id 26 
     name rradius
     direction -1 -4.48955e-011 9.34036e-027   
     length 3.04688   
     axis 180 30 90   XYZ
    dof rx
    limits (-10.0 170.0)
  end
  begin
     id 27 
     name rwrist
     direction -1 -4.49011e-011 1.53461e-026   
     length 1.52344   
     axis -1.09697e-014 -90 -90   XYZ
    dof ry
    limits (-180.0 0.0)
  end
  begin
     id 28
     name rhand
     direction -1 -4.48834e-011 3.06923e-026   
     length 0.500489   
     axis -1.95843e-014 -90 -90   XYZ
    dof rx rz
    limits (-90.0 90.0)
           (-45.0 45.0)
  end
  begin
     id 29
     name rfingers
     direction -1 -4.48967e-011 6.13845e-026   
     length 0.403507   
     axis -3.91686e-014 -90 -90   XYZ
    dof rx
    limits (0.0 90.0)
  end
  begin
     id 30
     name rthumb
     direction -0.707107 -6.34826e-011 0.707107   
     length 0.579358   
     axis -90 -45 -2.85299e-015   XYZ
    dof rx rz
    limits (-45.0 45.0)
           (-45.0 45.0)
  end
:hierarchy
  begin
    root lhipjoint rhipjoint lowerback
    lhipjoint lfemur
    lfemur ltibia
    ltibia lfoot
    lfoot ltoes
    rhipjoint rfemur
    rfemur rtibia
    rtibia rfoot
    rfoot rtoes
    lowerback upperback
    upperback thorax
    thorax lowerneck lclavicle rclavicle
    lowerneck upperneck
    upperneck head
    lclavicle lhumerus
    lhumerus lradius
    lradius lwrist
    lwrist lhand lthumb
    lhand lfingers
    rclavicle rhumerus
    rhumerus rradius
    rradius rwrist
    rwrist rhand rthumb
    rhand rfingers
  end

#!OML:ASF H:\IndianDance\Patient Classification 1\Patient 1\Session 1\dancer.ASF
:FULLY-SPECIFIED
:DEGREES
704
root 7.05371 14.4655 3.42065 -176.165 -7.35323 -175.692
lowerback 4.46637 1.71918 -2.87733
upperback -6.21368 1.72531 -0.917288
thorax -9.13567 0.890726 0.443671
lowerneck -21.8342 1.51216 1.66823
upperneck 27.4042 0.0827934 2.19489
head 12.7877 0.218208 0.509337
rclavicle -2.80286e-014 -1.59028e-014
rhumerus -18.7151 39.91 -30.3809
rradius 82.9094
rwrist -6.62557
rhand -30.5307 21.5117
rfingers 7.12502
rthumb -3.82991 -8.43366
lclavicle -2.80286e-014 -1.59028e-014
lhumerus -9.25658 -49.3096 13.4113
lradius 92.9252
lwrist -0.729579
lhand -19.958 -2.54243
lfingers 7.12502
lthumb 6.3804 27.3415
rfemur -29.7384 -12.9937 26.8964
rtibia 57.6673
rfoot -28.674 -9.15193
rtoes 14.158
lfemur -32.7484 36.7877 -5.01483
ltibia 53.1757
lfoot -10.6404 3.90868
ltoes -7.01803
705
root 7.08261 14.4789 3.41781 -176.269 -7.39564 -175.748
lowerback 4.43321 1.74165 -2.81788
upperback -6.09529 1.75869 -1.07893
thorax -8.97919 0.897577 0.238502
lowerneck -21.984 1.76527 1.90096
upperneck 27.5903 0.345295 2.18632
head 12.8948 0.356847 0.514059
rclavicle 7.95139e-015 -1.27222e-014
rhumerus -18.5697 40.5479 -31.2717
rradius 84.9857
rwrist -5.6052
rhand -31.0749 22.3133
rfingers 7.12502
rthumb -4.35543 -7.62188
lclavicle 7.95139e-015 -1.27222e-014
lhumerus -8.26233 -51.0038 13.4695
lradius 95.4861
lwrist -1.17636
lhand -20.9463 -2.67197
lfingers 7.12502
lthumb 5.42615 27.2386
rfemur -29.466 -12.8086 26.9255
rtibia 57.4228
rfoot -28.6249 -9.27032
rtoes 14.401
lfemur -32.4838 36.7381 -4.75708
ltibia 53.0523
lfoot -10.3021 3.47169
ltoes -6.61913
706
root 7.1102 14.4896 3.41473 -176.308 -7.49365 -175.8
lowerback 4.34797 1.77212 -2.78965
upperback -5.98708 1.80178 -1.22145
thorax -8.80546 0.911624 0.0716993
lowerneck -22.1229 1.95408 2.01012
upperneck 27.7069 0.541424 2.26398
head 12.9715 0.466758 0.562017
rclavicle -1.30204e-014 -2.22639e-014
rhumerus -18.444 41.2647 -32.0489
rradius 87.1412
rwrist -4.63341
rhand -31.6516 22.8023
rfingers 7.12502
rthumb -4.91233 -7.12073
lclavicle -1.30204e-014 -2.22639e-014
lhumerus -7.33027 -52.4351 13.8733
lradius 97.5774
lwrist -1.46012
lhand -22.0091 -2.65346
lfingers 7.12502
lthumb 4.39995 27.2808
rfemur -29.299 -12.6488 26.974
rtibia 57.2214
rfoot -28.5946 -9.38497
rtoes 14.72
lfemur -32.3907 36.6433 -4.54202
ltibia 53.0395
lfoot -9.93994 3.02894
ltoes -6.80873
707
root 7.13965 14.4992 3.41141 -176.334 -7.65877 -175.818
lowerback 4.21303 1.7627 -2.73787
upperback -5.85023 1.79874 -1.34965
thorax -8.56974 0.902672 -0.084878
lowerneck -22.2657 2.15216 2.18567
upperneck 27.7407 0.75335 2.28931
head 13.016 0.586302 0.581755
rclavicle -3.26007e-014 4.77083e-015
rhumerus -18.1893 42.0215 -32.7715
rradius 89.1699
rwrist -3.60734
rhand -32.3866 23.425
rfingers 7.12502
rthumb -5.62204 -6.48044
lclavicle -3.26007e-014 4.77083e-015
lhumerus -6.10636 -54.0043 13.8991
lradius 99.7254
lwrist -1.41784
lhand -23.0978 -1.64445
lfingers 7.12502
lthumb 3.34869 28.309
rfemur -29.1769 -12.5795 27.087
rtibia 57.0643
rfoot -28.5924 -9.52525
rtoes 15.0742
lfemur -32.4009 36.453 -4.3076
ltibia 53.1484
lfoot -9.43028 2.6614
ltoes -8.19723
708
root 7.17174 14.5038 3.40767 -176.327 -7.88274 -175.748
lowerback 4.08139 1.71457 -2.69608
upperback -5.75183 1.7482 -1.38213
thorax -8.38103 0.875055 -0.1303
lowerneck -22.3197 2.38885 2.36334
upperneck 27.7016 1.05419 2.23917
head 13.0126 0.735055 0.586388
rclavicle -3.28989e-014 2.38542e-014
rhumerus -17.8588 42.9521 -33.333
rradius 91.1148
rwrist -2.58712
rhand -33.3749 24.1867
rfingers 7.12502
rthumb -6.5761 -5.69124
lclavicle -3.28989e-014 2.38542e-014
lhumerus -4.99166 -55.6071 14.0241
lradius 101.664
lwrist -1.59763
lhand -25.0327 -2.28253
lfingers 7.12502
lthumb 1.48001 27.6921
rfemur -29.1551 -12.5338 27.321
rtibia 56.981
rfoot -28.6079 -9.6627
rtoes 15.5306
lfemur -32.5812 36.279 -4.00785
ltibia 53.3982
lfoot -8.92148 2.1481
ltoes -9.17483
709
root 7.19916 14.5041 3.4059 -176.311 -8.06071 -175.767
lowerback 3.99561 1.65882 -2.6996
upperback -5.66724 1.68002 -1.41907
thorax -8.23612 0.841197 -0.155037
lowerneck -22.3449 2.62149 2.48745
upperneck 27.6319 1.36861 2.2012
head 12.9905 0.885789 0.606666
rclavicle 1.59028e-014 4.13472e-014
rhumerus -17.4349 43.9985 -33.8491
rradius 93.0361
rwrist -2.00072
rhand -34.1155 25.016
rfingers 7.12502
rthumb -7.29108 -4.83838
lclavicle 1.59028e-014 4.13472e-014
lhumerus -3.98577 -57.1462 14.1659
lradius 103.504
lwrist -1.82564
lhand -26.7929 -4.11291
lfingers 7.12502
lthumb -0.220061 25.8667
rfemur -29.1751 -12.5463 27.4404
rtibia 56.9791
rfoot -28.6505 -9.81464
rtoes 15.6652
lfemur -32.8088 36.1757 -3.81379
ltibia 53.7735
lfoot -8.46292 1.58485
ltoes -9.8697
710
root 7.23189 14.4982 3.40675 -176.245 -8.34152 -175.725
lowerback 3.943 1.59017 -2.73831
upperback -5.60306 1.59416 -1.40378
thorax -8.13553 0.80311 -0.104947
lowerneck -22.3805 2.85193 2.65451
upperneck 27.5144 1.69971 2.07462
head 12.9529 1.03856 0.588483
rclavicle -1.3418e-014 -3.18055e-015
rhumerus -17.0428 45.0024 -34.3243
rradius 94.9107
rwrist -1.68311
rhand -34.6821 26.2424
rfingers 7.12502
rthumb -7.83795 -3.59229
lclavicle -1.3418e-014 -3.18055e-015
lhumerus -2.77342 -58.6705 14.2152
lradius 105.151
lwrist -2.23988
lhand -28.7215 -5.44286
lfingers 7.12502
lthumb -2.08274 24.5267
rfemur -29.3468 -12.6331 27.6781
rtibia 57.0688
rfoot -28.7167 -10.0108
rtoes 15.8684
lfemur -33.298 36.0638 -3.5958
ltibia 54.3036
lfoot -8.01752 0.994467
ltoes -9.80169
